<svg width="160" height="37" viewBox="0 0 160 37" fill="none" xmlns="http://www.w3.org/2000/svg">
<rect width="160" height="37" rx="4" fill="#F2F2F2"/>
<path d="M34.1959 12.912C34.6013 12.816 35.0386 12.752 35.5079 12.72C35.9773 12.688 36.4413 12.672 36.8999 12.672C37.3906 12.672 37.8866 12.72 38.3879 12.816C38.8999 12.912 39.3639 13.088 39.7799 13.344C40.1959 13.6 40.5319 13.952 40.7879 14.4C41.0546 14.848 41.1879 15.4187 41.1879 16.112C41.1879 16.7947 41.0653 17.3707 40.8199 17.84C40.5746 18.3093 40.2493 18.6933 39.8439 18.992C39.4386 19.28 38.9746 19.488 38.4519 19.616C37.9293 19.744 37.3906 19.808 36.8359 19.808C36.7826 19.808 36.6919 19.808 36.5639 19.808C36.4466 19.808 36.3186 19.808 36.1799 19.808C36.0519 19.7973 35.9239 19.7867 35.7959 19.776C35.6679 19.7653 35.5773 19.7547 35.5239 19.744V24H34.1959V12.912ZM36.9319 13.824C36.6546 13.824 36.3879 13.8293 36.1319 13.84C35.8759 13.8507 35.6733 13.8773 35.5239 13.92V18.56C35.5773 18.5813 35.6626 18.5973 35.7799 18.608C35.8973 18.608 36.0199 18.6133 36.1479 18.624C36.2759 18.624 36.3986 18.624 36.5159 18.624C36.6333 18.624 36.7186 18.624 36.7719 18.624C37.1346 18.624 37.4919 18.592 37.8439 18.528C38.2066 18.4533 38.5319 18.3253 38.8199 18.144C39.1079 17.9627 39.3373 17.7067 39.5079 17.376C39.6893 17.0453 39.7799 16.624 39.7799 16.112C39.7799 15.6747 39.6946 15.312 39.5239 15.024C39.3639 14.7253 39.1453 14.4907 38.8679 14.32C38.6013 14.1387 38.2973 14.0107 37.9559 13.936C37.6146 13.8613 37.2733 13.824 36.9319 13.824ZM43.1334 12.8H49.2294V13.984H44.4614V17.648H48.8294V18.832H44.4614V22.816H49.3094V24H43.1334V12.8ZM58.5596 16.416L58.6556 15.136H58.5916L57.9036 16.448L52.4956 24H51.7116V12.8H53.0396V20.48L52.9276 21.744H52.9916L53.6956 20.432L59.1036 12.8H59.8876V24H58.5596V16.416ZM54.4796 10.08C54.5222 10.4747 54.6716 10.7787 54.9276 10.992C55.1836 11.2053 55.5249 11.312 55.9516 11.312C56.3782 11.312 56.7142 11.2053 56.9596 10.992C57.2156 10.7787 57.3702 10.48 57.4236 10.096L58.5596 10.368C58.4422 10.944 58.1702 11.4027 57.7436 11.744C57.3276 12.0747 56.7249 12.24 55.9356 12.24C55.1782 12.24 54.5542 12.096 54.0636 11.808C53.5836 11.5093 53.3009 11.04 53.2156 10.4L54.4796 10.08ZM69.8342 13.984H66.3462V24H65.0182V13.984H61.5302V12.8H69.8342V13.984ZM78.3252 16.416L78.4212 15.136H78.3572L77.6692 16.448L72.2612 24H71.4772V12.8H72.8052V20.48L72.6932 21.744H72.7572L73.4612 20.432L78.8692 12.8H79.6532V24H78.3252V16.416ZM89.0718 18.864H83.6958V24H82.3678V12.8H83.6958V17.68H89.0718V12.8H90.3998V24H89.0718V18.864ZM99.1178 13.984H94.4458V24H93.1178V12.8H99.1178V13.984ZM100.292 16.816C100.292 16.528 100.372 16.304 100.532 16.144C100.703 15.9733 100.927 15.888 101.204 15.888C101.492 15.888 101.721 15.9733 101.892 16.144C102.063 16.304 102.148 16.528 102.148 16.816C102.148 17.0933 102.063 17.3173 101.892 17.488C101.721 17.6587 101.492 17.744 101.204 17.744C100.927 17.744 100.703 17.6587 100.532 17.488C100.372 17.3173 100.292 17.0933 100.292 16.816ZM100.292 23.264C100.292 22.976 100.372 22.752 100.532 22.592C100.703 22.4213 100.927 22.336 101.204 22.336C101.492 22.336 101.721 22.4213 101.892 22.592C102.063 22.752 102.148 22.976 102.148 23.264C102.148 23.5413 102.063 23.7653 101.892 23.936C101.721 24.1067 101.492 24.192 101.204 24.192C100.927 24.192 100.703 24.1067 100.532 23.936C100.372 23.7653 100.292 23.5413 100.292 23.264ZM107.434 16.192C107.434 15.68 107.508 15.2053 107.658 14.768C107.807 14.3307 108.026 13.952 108.314 13.632C108.602 13.312 108.959 13.0613 109.386 12.88C109.823 12.6987 110.33 12.608 110.906 12.608C111.994 12.608 112.842 12.96 113.45 13.664C114.058 14.368 114.362 15.36 114.362 16.64C114.362 17.8453 114.223 18.9013 113.946 19.808C113.679 20.704 113.306 21.4613 112.826 22.08C112.346 22.6987 111.775 23.184 111.114 23.536C110.463 23.8773 109.754 24.096 108.986 24.192L108.698 23.168C109.316 23.072 109.871 22.8907 110.362 22.624C110.863 22.3573 111.29 22.0213 111.642 21.616C112.004 21.2107 112.298 20.752 112.522 20.24C112.746 19.7173 112.9 19.152 112.986 18.544C112.698 18.8853 112.378 19.1253 112.026 19.264C111.684 19.392 111.231 19.456 110.666 19.456C110.228 19.456 109.812 19.3867 109.418 19.248C109.034 19.0987 108.692 18.8853 108.394 18.608C108.095 18.3307 107.86 17.9893 107.69 17.584C107.519 17.1787 107.434 16.7147 107.434 16.192ZM108.762 16.064C108.762 16.8213 108.959 17.392 109.354 17.776C109.759 18.1493 110.287 18.336 110.938 18.336C111.46 18.336 111.908 18.2507 112.282 18.08C112.655 17.9093 112.922 17.6853 113.082 17.408C113.103 17.2693 113.114 17.1467 113.114 17.04C113.114 16.9333 113.114 16.8213 113.114 16.704C113.114 16.32 113.066 15.952 112.97 15.6C112.884 15.2373 112.751 14.9173 112.57 14.64C112.388 14.352 112.148 14.128 111.85 13.968C111.562 13.808 111.22 13.728 110.826 13.728C110.175 13.728 109.668 13.936 109.306 14.352C108.943 14.7573 108.762 15.328 108.762 16.064ZM116.104 23.312C116.104 23.056 116.19 22.848 116.36 22.688C116.531 22.528 116.75 22.448 117.016 22.448C117.347 22.448 117.614 22.5653 117.816 22.8C118.03 23.0347 118.136 23.376 118.136 23.824C118.136 24.208 118.083 24.544 117.976 24.832C117.87 25.12 117.731 25.3653 117.56 25.568C117.39 25.7813 117.203 25.952 117 26.08C116.798 26.2187 116.595 26.32 116.392 26.384L115.992 25.76C116.376 25.6107 116.659 25.376 116.84 25.056C117.032 24.7467 117.128 24.432 117.128 24.112C117.032 24.144 116.942 24.16 116.856 24.16C116.643 24.16 116.462 24.0907 116.312 23.952C116.174 23.8027 116.104 23.5893 116.104 23.312ZM125.581 15.344C125.581 15.9093 125.475 16.4907 125.261 17.088C125.059 17.6747 124.787 18.2667 124.445 18.864C124.115 19.4613 123.741 20.048 123.325 20.624C122.909 21.1893 122.493 21.728 122.077 22.24L121.293 22.928V22.992L122.317 22.816H125.805V24H119.437V23.536C119.672 23.2907 119.955 22.9867 120.285 22.624C120.616 22.2613 120.957 21.8613 121.309 21.424C121.672 20.976 122.024 20.5067 122.365 20.016C122.717 19.5147 123.032 19.008 123.309 18.496C123.597 17.984 123.827 17.4773 123.997 16.976C124.168 16.4747 124.253 16 124.253 15.552C124.253 15.0293 124.104 14.5973 123.805 14.256C123.507 13.904 123.053 13.728 122.445 13.728C122.04 13.728 121.645 13.8133 121.261 13.984C120.877 14.144 120.547 14.3307 120.269 14.544L119.741 13.632C120.115 13.312 120.557 13.0613 121.069 12.88C121.581 12.6987 122.131 12.608 122.717 12.608C123.176 12.608 123.581 12.6773 123.933 12.816C124.285 12.944 124.584 13.1307 124.829 13.376C125.075 13.6213 125.261 13.9147 125.389 14.256C125.517 14.5867 125.581 14.9493 125.581 15.344Z" fill="#333333"/>
</svg>
