<svg width="138" height="70" viewBox="0 0 138 70" fill="none" xmlns="http://www.w3.org/2000/svg">
<g clip-path="url(#clip0_3:3)">
<path d="M138 0H0L59.5 65.7C64.7 71.5 73.3 71.5 78.5 65.7L138 0Z" fill="#81B3D3"/>
<path d="M36.7 0.5L68.8 38.4L100.8 0.7L36.7 0.5Z" fill="#23A9E1"/>
<path d="M61.1 14.7H78.4C77.1 13.9 74 10.1 72.4 11.5C72.3 11.6 67.5 5.8 64.4 8.6C61.7 11.1 60.4 8.3 57.4 10.2C53.8 12.6 59.4 13.9 61.1 14.7ZM87.8 11.2L78 11.3C81.9 6.8 83.6 7.3 87.8 11.2Z" fill="white"/>
<path d="M97.6 3.6V1.2H99.7L97.6 3.6ZM48.4 13C48.5 13.1 50.8 10.6 54.5 8.1C57.9 5.8 63.1 3.2 68.9 3.2C74.7 3.2 80 5.9 83.4 8.2C87.1 10.6 89.4 13 89.5 13.1L87 16.1C82.5 16.7 79.3 20 74.9 19.3C72.7 18.9 72.6 17.7 72 16.4C71.5 15.4 70.7 15.6 69.7 15.2C68.8 14.8 68.2 14.1 66.3 14.5C64.7 14.9 64.5 17.4 62.4 17.3C61.3 17.2 61.2 15.7 59.6 13.7C55.5 8.8 51.7 9.5 49.1 14L68.7 37.3L48.4 13ZM40 1.2V3.1L38.4 1.2H40ZM93.9 1.2H97.1V4.2L93.9 8V1.2ZM89.8 12.6V1.2H93.3V8.6L89.8 12.6C89.8 12.6 89.9 12.6 89.8 12.6ZM89.3 2.2V12.1C88.2 11 87 10 85.7 9.1L89.3 2.2ZM85.2 1.9V8.7C84.7 8.4 84.3 8 83.7 7.7C83 7.3 82.3 6.8 81.5 6.4L85.2 1.9ZM80.8 1.7V6C79.8 5.5 78.7 5 77.7 4.5L80.8 1.7ZM81.4 1.2H85.1L81.4 5.8V1.2ZM85.7 1.2H89.3L85.7 8.3V1.2ZM76.9 1.2H80.8L77.3 4.3C77.2 4.3 77.1 4.2 77 4.2L76.9 1.2ZM76.4 1.6V4C75.4 3.6 74.4 3.3 73.3 3.1L76.4 1.6ZM72.2 1.6V2.9C71.5 2.8 70.8 2.7 70 2.6L72.2 1.6ZM65.4 1.6L67.6 2.6C66.8 2.6 66.1 2.7 65.4 2.9V1.6ZM61.3 1.6L64.4 3.1C63.3 3.3 62.3 3.6 61.3 4V1.6ZM64.9 2.8L61.6 1.2H64.9V2.8ZM68.4 2.4L65.6 1.1H68.4V2.4ZM69.1 1.2H72L69.1 2.5V1.2ZM72.8 1.2H76L72.8 2.8V1.2ZM60.4 4.3L56.9 1.2H60.8V4.2L60.4 4.3ZM56.8 1.7L59.9 4.4C58.8 4.8 57.8 5.3 56.8 5.9V1.7ZM52.5 1.9L56.1 6.4C54.8 7.1 53.6 7.9 52.5 8.8V1.9ZM48.3 2.2L51.9 9.2C50.6 10.2 49.4 11.2 48.3 12.4V2.2ZM52 8.2L48.4 1.1H52V8.2ZM56.3 5.7L52.6 1.1H56.3V5.7ZM43.7 7.5L40.5 3.7V1.2H43.7V7.5ZM44.3 1.2H47.8V12.4L44.3 8.2V1.2ZM69.1 0H36V14.6L68.8 54.5L69 54.2L102 15V0H69.1Z" fill="#491213"/>
<path d="M66.2 46L68.8 41.8L71.4 46L68.8 50.2L66.2 46Z" fill="#23A9E1"/>
<path d="M74.2 30.6C70.8 28.6 71.6 27.1 74.4 25.7C75.9 25 79.2 22.3 80.5 23.2L74.2 30.6ZM71.9 33.1C69.9 33 67.6 32.7 65.6 33.2C66.8 33.5 69.8 34.4 67 35.1C68 36.5 69.6 36.4 70.6 35.2C70.2 35 69.9 34.7 69.6 34.5C70.7 34.2 71.7 33.6 71.9 33.1ZM73.1 31.5C72.2 30.7 71.2 30.7 70.4 31.5C69.2 29.4 65 30.1 63 29.8C64.1 32.4 72.6 32.9 73.1 31.5ZM66.3 29.3C64.7 28.8 59.5 28.9 62.9 27.5C64 27.1 69.6 27.6 66.3 29.3ZM68.3 26.3C67.8 25.2 68.7 23.9 70 24.9C71.2 25.7 69.4 26.9 68.3 26.3ZM65.4 26.4C63.1 27.1 60.1 25.6 63.8 24.9C66.1 24.4 68.5 25.4 65.4 26.4C65.3 26.4 65.5 26.4 65.4 26.4ZM62.8 20.2C62.3 21.8 61.3 22.1 61.4 20.2C61.5 17.9 63 18.5 64.6 17.6C65.9 16.9 66.6 14.2 68.9 15.8C69.9 16.5 71.1 15.9 71.4 17C71.4 16.9 68.5 23.7 70.1 23.7C66.9 23.7 68.3 19.9 69.5 17.3C68.3 17.9 66.4 21.6 68 22.3C67.2 23.4 64.6 24.9 63.3 23.8C62.2 22.8 62.8 21.5 62.8 20.2ZM58.8 23C53.2 23 57 14.4 58.9 14.9C61.1 15.6 60.8 23.1 58.8 23ZM52.6 14.8C50 14.7 51.1 12.2 52.9 11.7C54.6 11.2 58.1 12.8 59.3 13.9C57.5 14.5 55.2 14.4 53.2 14.5C53 12.5 52.5 13.2 52.6 14.8Z" fill="#DC6243"/>
<path d="M71.8 25.8C68.9 22.8 76.1 23.1 77.3 22C78.1 22.3 84.3 16.6 85.8 17C84.7 18.3 82.4 22.3 80.8 22.3C79.5 22.3 78.2 22.1 77.2 23C75.7 24.4 73.3 25.1 71.8 25.8Z" fill="#F49774"/>
<path d="M72.7 22.2C71.1 23.1 69.6 19.7 72.4 20C74.2 20.2 76.1 19.8 77.8 20.1C76.5 21.6 74.7 22.4 72.7 22.2Z" fill="#F4B1A4"/>
<path d="M49.7189 13.9301C50.0189 14.3301 50.3189 14.7301 50.2189 15.3301C50.2189 15.7301 49.619 16.3301 50.019 16.5301L51.519 14.7301C51.119 14.6301 48.019 10.9301 48.019 10.5301L45.9189 11.6301C46.0189 12.0301 46.7189 11.6301 47.1189 11.6301C47.6189 11.6301 48.0189 12.0301 48.4189 12.3301C47.3189 13.2301 44.6189 15.6301 44.3189 15.6301C44.2189 15.6301 43.6189 15.2301 43.6189 15.6301C43.6189 15.8301 44.2189 16.3301 44.3189 16.4301L45.7189 18.1301C46.1189 17.9301 45.6189 17.6301 45.8189 17.3301C45.919 17.1301 49.0189 14.6301 49.7189 13.9301ZM46.3189 9.43011C46.6189 9.33011 46.7189 9.73011 46.9189 9.43011L45.3189 7.53011C45.1189 7.23011 44.8189 6.93011 44.8189 7.53011C44.919 7.93011 40.8189 11.2301 40.6189 11.3301C40.3189 11.4301 40.1189 11.0301 39.9189 11.4301C40.4189 12.0301 40.8189 12.5301 41.3189 13.1301C41.5189 13.3301 41.6189 13.5301 41.8189 13.7301C42.0189 13.9301 41.9189 13.3301 41.9189 13.3301C41.8189 13.0301 42.2189 12.7301 42.5189 12.5301C43.5189 11.5301 46.0189 9.43011 46.3189 9.43011ZM40.6189 8.83011C39.5189 9.13011 38.2189 8.73011 37.9189 7.53011C37.5189 6.33011 38.3189 5.13011 39.2189 4.43011C40.1189 3.73011 41.5189 3.83011 42.0189 4.93011C42.2189 5.43011 42.1189 6.03011 41.9189 6.53011C41.8189 6.83011 41.5189 7.13011 41.9189 7.33011C42.5189 6.63011 43.0189 5.93011 43.6189 5.23011C42.9189 4.83011 42.6189 4.13011 42.1189 3.53011C41.5189 2.83011 40.8189 2.13011 39.8189 2.03011C37.9189 1.73011 36.219 3.73011 36.019 5.43011C35.919 6.33011 36.2189 7.23011 36.8189 8.03011C37.3189 8.63011 38.0189 9.13011 38.4189 9.83011C38.6189 9.93011 40.2189 9.13011 40.5189 9.03011C40.7189 9.03011 40.6189 8.93011 40.6189 8.83011ZM66.1189 32.4301C65.4189 31.9301 63.5189 29.4301 63.1189 28.9301L62.919 28.6301L62.7189 28.7301C62.6189 28.8301 62.8189 29.1301 62.7189 29.3301C62.2189 30.1301 59.0189 32.5301 58.8189 32.7301C58.4189 32.9301 58.0189 32.6301 57.8189 32.9301C58.3189 33.5301 59.6189 35.2301 59.8189 35.2301C60.1189 35.2301 59.9189 34.7301 59.9189 34.6301C60.0189 34.4301 61.6189 33.0301 62.2189 32.5301C62.4189 32.3301 62.6189 32.8301 62.8189 33.0301C63.0189 33.3301 63.1189 33.7301 63.0189 34.0301C62.9189 34.2301 62.5189 34.6301 62.8189 34.8301C63.2189 34.3301 64.3189 33.0301 64.5189 32.8301C64.719 32.6301 64.1189 32.8301 64.2189 32.7301C64.0189 32.8301 63.719 32.9301 63.5189 32.7301C63.4189 32.7301 62.819 32.0301 62.919 31.9301C63.219 31.7301 63.519 31.3301 63.919 31.2301C64.519 31.1301 64.9189 32.2301 65.0189 32.6301C65.1189 33.0301 65.119 33.4301 64.919 33.7301C64.819 34.0301 64.619 34.2301 64.919 34.3301L66.3189 32.4301C66.3189 32.5301 66.2189 32.5301 66.1189 32.4301C66.0189 32.4301 66.2189 32.5301 66.1189 32.4301ZM56.9189 23.5301C56.2189 23.5301 55.5189 23.8301 54.9189 24.3301C53.5189 25.5301 53.3189 27.6301 54.4189 29.1301C55.7189 30.8301 57.8189 31.0301 59.5189 29.8301C60.9189 28.6301 61.1189 26.5301 60.0189 25.0301C59.219 24.0301 58.0189 23.5301 56.9189 23.5301ZM58.1189 24.9301C59.0189 24.8301 59.6189 25.7301 59.2189 26.7301C58.8189 27.7301 57.8189 28.7301 56.8189 29.1301C55.6189 29.6301 54.8189 28.6301 55.3189 27.4301C55.7189 26.4301 56.7189 25.4301 57.7189 25.0301C57.8189 25.0301 57.9189 24.9301 58.1189 24.9301ZM55.3189 20.3301C55.6189 20.3301 55.9189 20.7301 56.1189 20.3301L54.7189 18.6301C54.3189 18.8301 54.7189 19.0301 54.6189 19.2301C54.4189 19.5301 52.9189 19.7301 52.5189 19.8301C52.6189 19.4301 53.1189 18.1301 53.3189 18.0301C53.7189 17.7301 53.9189 18.3301 54.1189 17.9301L52.3189 15.8301C52.1189 15.6301 51.9189 15.1301 51.7189 15.4301C51.7189 15.4301 51.7189 16.4301 51.6189 16.5301C51.5189 16.7301 51.0189 18.9301 50.4189 19.4301C50.1189 19.7301 48.9189 20.7301 48.6189 20.8301C48.3189 20.9301 48.1189 20.4301 47.8189 20.8301L49.4189 22.7301C49.5189 22.8301 49.8189 23.3301 49.9189 23.3301C50.2189 23.4301 49.919 22.7301 50.019 22.6301C50.119 22.3301 51.6189 20.8301 52.3189 20.7301C53.2189 20.5301 54.3189 20.2301 55.3189 20.3301C55.5189 20.3301 55.1189 20.3301 55.3189 20.3301ZM79.519 27.0301C79.6189 27.4301 79.7189 27.9301 79.6189 28.3301C79.519 28.9301 79.0189 30.2301 78.2189 29.8301C77.4189 29.4301 76.819 28.7301 76.1189 28.1301C76.6189 27.5301 77.1189 27.0301 78.019 27.3301C78.219 27.4301 78.4189 27.3301 78.2189 27.1301C77.9189 26.9301 76.2189 25.8301 76.1189 25.9301C75.9189 26.1301 76.4189 26.5301 76.2189 26.9301C76.1189 27.2301 75.819 27.4301 75.6189 27.7301C75.1189 27.3301 74.419 26.9301 74.919 26.2301C75.319 25.8301 75.7189 25.4301 76.3189 25.3301C76.7189 25.2301 77.519 25.6301 77.6189 25.2301C76.9189 24.9301 76.219 24.5301 75.519 24.2301C75.6189 24.7301 73.3189 27.1301 72.8189 27.7301C72.7189 27.8301 72.419 28.1301 72.419 28.2301C72.419 28.5301 72.8189 28.3301 72.8189 28.3301C73.1189 28.2301 77.2189 31.6301 77.3189 31.9301C77.4189 32.1301 77.2189 32.3301 77.3189 32.4301C77.3189 32.4301 77.419 32.5301 77.519 32.5301C77.819 32.2301 80.419 28.6301 81.019 28.5301C80.519 27.7301 80.019 26.9301 79.519 26.1301C79.1189 26.3301 79.419 26.8301 79.519 27.0301ZM75.519 31.4301C74.219 30.5301 71.919 32.2301 71.519 32.4301C70.819 32.7301 70.3189 32.0301 70.7189 31.4301C71.0189 30.9301 71.6189 30.6301 72.2189 30.6301C72.4189 30.6301 73.1189 30.7301 73.1189 30.6301C73.2189 30.5301 73.2189 30.5301 73.1189 30.4301C72.519 30.0301 72.019 29.6301 71.419 29.3301C71.319 30.0301 70.519 30.4301 70.1189 30.9301C69.6189 31.5301 69.1189 32.2301 69.1189 32.9301C69.1189 33.6301 69.5189 34.3301 70.2189 34.6301C70.9189 35.0301 71.719 34.7301 72.419 34.3301C72.819 34.0301 73.2189 33.7301 73.6189 33.5301C74.2189 33.2301 75.119 33.5301 74.919 34.3301C74.719 35.0301 74.0189 35.6301 73.3189 35.8301C72.9189 35.9301 72.519 35.9301 72.1189 35.7301C71.819 35.6301 71.5189 35.2301 71.3189 35.6301L73.6189 37.2301C73.7189 36.7301 73.9189 36.5301 74.3189 36.2301C74.8189 35.8301 75.2189 35.3301 75.6189 34.8301C76.4189 33.9301 76.719 32.3301 75.519 31.4301ZM93.1189 3.33011C93.1189 3.43011 93.1189 3.43011 93.1189 3.33011L92.2189 4.33011L91.419 5.33011C91.219 5.53011 91.119 5.63011 91.419 5.83011C91.919 5.53011 94.9189 10.6301 94.7189 11.3301C94.2189 11.5301 90.2189 8.03011 90.1189 7.83011C90.1189 7.73011 90.319 7.13011 90.019 7.23011C89.919 7.23011 89.519 7.83011 89.419 7.93011L88.8189 8.63011C89.0189 8.93011 89.119 8.63011 89.419 8.63011C89.619 8.73011 90.619 9.53011 90.919 9.73011C90.419 9.73011 89.219 9.83011 89.019 9.83011C88.419 9.93011 88.7189 9.43011 88.3189 9.23011L86.8189 11.0301L85.919 12.0301C85.919 12.0301 85.919 12.0301 85.919 12.1301C86.119 12.3301 86.0189 12.2301 86.3189 12.1301C86.6189 12.0301 90.6189 15.3301 90.7189 15.5301C90.9189 15.8301 90.6189 16.1301 91.019 16.3301L92.2189 14.9301C92.3189 14.8301 92.3189 14.8301 92.2189 14.8301C91.9189 14.6301 91.919 14.9301 91.519 14.9301C91.219 14.8301 88.6189 12.7301 87.7189 11.9301L93.019 11.7301C93.219 11.7301 93.7189 12.3301 93.7189 12.5301C93.6189 12.7301 93.4189 12.9301 93.7189 13.0301C94.0189 12.6301 94.319 12.3301 94.6189 11.9301L94.7189 11.7301C94.8189 11.7301 94.8189 11.6301 94.8189 11.5301L94.919 11.4301C95.219 11.1301 96.1189 10.1301 96.019 10.0301C95.719 9.73011 95.6189 10.3301 95.2189 10.0301C95.0189 9.83011 94.4189 8.83011 94.3189 8.63011C94.1189 8.33011 94.719 8.03011 94.919 7.93011C95.419 7.63011 97.0189 7.13011 97.2189 8.13011C97.2189 8.33011 97.019 8.53011 97.1189 8.63011C97.1189 8.63011 97.2189 8.83011 97.3189 8.73011L99.419 6.13011C99.319 6.03011 99.3189 6.03011 99.2189 5.93011C98.7189 6.43011 93.719 4.43011 93.419 4.13011C93.319 3.93011 93.319 3.33011 93.1189 3.33011ZM92.919 5.93011C93.719 6.23011 94.4189 6.53011 95.2189 6.93011C95.0189 7.03011 94.819 7.13011 94.6189 7.23011C94.4189 7.33011 94.219 7.53011 94.019 7.73011L92.919 5.93011ZM86.3189 13.6301C85.2189 13.5301 84.1189 14.0301 83.3189 14.9301C82.1189 16.4301 82.2189 18.6301 83.7189 19.8301C85.2189 21.0301 87.4189 20.7301 88.6189 19.3301C89.819 17.8301 89.7189 15.6301 88.2189 14.4301C87.7189 14.0301 87.0189 13.7301 86.3189 13.6301ZM84.919 15.2301C85.519 15.2301 86.2189 15.6301 86.6189 15.9301C87.4189 16.4301 88.819 17.6301 88.1189 18.6301C88.1189 18.5301 88.219 18.5301 88.019 18.7301C87.219 19.5301 85.819 18.8301 85.1189 18.2301C84.4189 17.7301 83.119 16.5301 83.919 15.5301C84.219 15.3301 84.519 15.2301 84.919 15.2301ZM81.8189 19.5301C80.6189 19.4301 79.419 20.0301 78.519 21.1301C77.919 21.9301 77.2189 22.6301 76.6189 23.4301C76.819 23.7301 77.119 23.3301 77.419 23.5301C77.719 23.7301 81.519 26.8301 81.519 27.0301C81.6189 27.3301 81.319 27.4301 81.6189 27.6301C81.7189 27.7301 84.5189 24.2301 84.8189 23.6301C85.2189 22.5301 84.919 21.2301 84.019 20.4301C84.219 20.5301 84.1189 20.5301 84.019 20.4301C83.219 19.8301 82.5189 19.5301 81.8189 19.5301ZM80.7189 21.1301C80.8189 21.1301 80.919 21.1301 81.019 21.1301C82.419 21.5301 84.4189 23.2301 83.1189 24.7301C82.9189 24.9301 83.1189 24.7301 82.7189 25.1301C82.5189 25.3301 78.5189 22.1301 78.7189 21.9301C79.1189 21.4301 80.0189 21.0301 80.7189 21.1301Z" fill="white"/>
</g>
<defs>
<clipPath id="clip0_3:3">
<rect width="138" height="70" fill="white"/>
</clipPath>
</defs>
</svg>
