<svg width="160" height="37" viewBox="0 0 160 37" fill="none" xmlns="http://www.w3.org/2000/svg">
<rect width="160" height="37" rx="4" fill="#F2F2F2"/>
<path d="M34.1959 12.912C34.6013 12.816 35.0386 12.752 35.5079 12.72C35.9773 12.688 36.4413 12.672 36.8999 12.672C37.3906 12.672 37.8866 12.72 38.3879 12.816C38.8999 12.912 39.3639 13.088 39.7799 13.344C40.1959 13.6 40.5319 13.952 40.7879 14.4C41.0546 14.848 41.1879 15.4187 41.1879 16.112C41.1879 16.7947 41.0653 17.3707 40.8199 17.84C40.5746 18.3093 40.2493 18.6933 39.8439 18.992C39.4386 19.28 38.9746 19.488 38.4519 19.616C37.9293 19.744 37.3906 19.808 36.8359 19.808C36.7826 19.808 36.6919 19.808 36.5639 19.808C36.4466 19.808 36.3186 19.808 36.1799 19.808C36.0519 19.7973 35.9239 19.7867 35.7959 19.776C35.6679 19.7653 35.5773 19.7547 35.5239 19.744V24H34.1959V12.912ZM36.9319 13.824C36.6546 13.824 36.3879 13.8293 36.1319 13.84C35.8759 13.8507 35.6733 13.8773 35.5239 13.92V18.56C35.5773 18.5813 35.6626 18.5973 35.7799 18.608C35.8973 18.608 36.0199 18.6133 36.1479 18.624C36.2759 18.624 36.3986 18.624 36.5159 18.624C36.6333 18.624 36.7186 18.624 36.7719 18.624C37.1346 18.624 37.4919 18.592 37.8439 18.528C38.2066 18.4533 38.5319 18.3253 38.8199 18.144C39.1079 17.9627 39.3373 17.7067 39.5079 17.376C39.6893 17.0453 39.7799 16.624 39.7799 16.112C39.7799 15.6747 39.6946 15.312 39.5239 15.024C39.3639 14.7253 39.1453 14.4907 38.8679 14.32C38.6013 14.1387 38.2973 14.0107 37.9559 13.936C37.6146 13.8613 37.2733 13.824 36.9319 13.824ZM43.1334 12.8H49.2294V13.984H44.4614V17.648H48.8294V18.832H44.4614V22.816H49.3094V24H43.1334V12.8ZM58.5596 16.416L58.6556 15.136H58.5916L57.9036 16.448L52.4956 24H51.7116V12.8H53.0396V20.48L52.9276 21.744H52.9916L53.6956 20.432L59.1036 12.8H59.8876V24H58.5596V16.416ZM54.4796 10.08C54.5222 10.4747 54.6716 10.7787 54.9276 10.992C55.1836 11.2053 55.5249 11.312 55.9516 11.312C56.3782 11.312 56.7142 11.2053 56.9596 10.992C57.2156 10.7787 57.3702 10.48 57.4236 10.096L58.5596 10.368C58.4422 10.944 58.1702 11.4027 57.7436 11.744C57.3276 12.0747 56.7249 12.24 55.9356 12.24C55.1782 12.24 54.5542 12.096 54.0636 11.808C53.5836 11.5093 53.3009 11.04 53.2156 10.4L54.4796 10.08ZM69.8342 13.984H66.3462V24H65.0182V13.984H61.5302V12.8H69.8342V13.984ZM78.3252 16.416L78.4212 15.136H78.3572L77.6692 16.448L72.2612 24H71.4772V12.8H72.8052V20.48L72.6932 21.744H72.7572L73.4612 20.432L78.8692 12.8H79.6532V24H78.3252V16.416ZM89.0718 18.864H83.6958V24H82.3678V12.8H83.6958V17.68H89.0718V12.8H90.3998V24H89.0718V18.864ZM99.1178 13.984H94.4458V24H93.1178V12.8H99.1178V13.984ZM100.292 16.816C100.292 16.528 100.372 16.304 100.532 16.144C100.703 15.9733 100.927 15.888 101.204 15.888C101.492 15.888 101.721 15.9733 101.892 16.144C102.063 16.304 102.148 16.528 102.148 16.816C102.148 17.0933 102.063 17.3173 101.892 17.488C101.721 17.6587 101.492 17.744 101.204 17.744C100.927 17.744 100.703 17.6587 100.532 17.488C100.372 17.3173 100.292 17.0933 100.292 16.816ZM100.292 23.264C100.292 22.976 100.372 22.752 100.532 22.592C100.703 22.4213 100.927 22.336 101.204 22.336C101.492 22.336 101.721 22.4213 101.892 22.592C102.063 22.752 102.148 22.976 102.148 23.264C102.148 23.5413 102.063 23.7653 101.892 23.936C101.721 24.1067 101.492 24.192 101.204 24.192C100.927 24.192 100.703 24.1067 100.532 23.936C100.372 23.7653 100.292 23.5413 100.292 23.264ZM107.69 21.328C107.69 20.656 107.866 20.0747 108.218 19.584C108.57 19.0827 109.119 18.6293 109.866 18.224C109.599 18.064 109.348 17.8987 109.114 17.728C108.89 17.5467 108.687 17.344 108.506 17.12C108.335 16.896 108.196 16.6453 108.09 16.368C107.994 16.0907 107.946 15.7707 107.946 15.408C107.946 14.992 108.015 14.6133 108.154 14.272C108.303 13.9307 108.511 13.6373 108.778 13.392C109.055 13.1467 109.38 12.9547 109.754 12.816C110.138 12.6773 110.57 12.608 111.05 12.608C111.498 12.608 111.903 12.672 112.266 12.8C112.628 12.928 112.932 13.104 113.178 13.328C113.434 13.552 113.631 13.8187 113.77 14.128C113.908 14.4373 113.978 14.7787 113.978 15.152C113.978 15.76 113.839 16.2987 113.562 16.768C113.284 17.2267 112.826 17.68 112.186 18.128C112.463 18.288 112.724 18.464 112.97 18.656C113.226 18.848 113.444 19.0613 113.626 19.296C113.818 19.5307 113.967 19.7973 114.074 20.096C114.18 20.384 114.234 20.7147 114.234 21.088C114.234 21.5467 114.159 21.968 114.01 22.352C113.86 22.7253 113.642 23.0507 113.354 23.328C113.066 23.5947 112.714 23.808 112.298 23.968C111.882 24.1173 111.407 24.192 110.874 24.192C110.362 24.192 109.908 24.1173 109.514 23.968C109.119 23.8187 108.783 23.616 108.506 23.36C108.239 23.104 108.036 22.8053 107.898 22.464C107.759 22.112 107.69 21.7333 107.69 21.328ZM112.986 21.168C112.986 20.848 112.922 20.5707 112.794 20.336C112.666 20.0907 112.495 19.872 112.282 19.68C112.079 19.4773 111.844 19.296 111.578 19.136C111.311 18.976 111.034 18.8213 110.746 18.672C110.095 19.0347 109.631 19.44 109.354 19.888C109.076 20.336 108.938 20.7627 108.938 21.168C108.938 21.424 108.98 21.6693 109.066 21.904C109.151 22.1387 109.279 22.3413 109.45 22.512C109.62 22.6827 109.828 22.8213 110.074 22.928C110.33 23.024 110.623 23.072 110.954 23.072C111.22 23.072 111.476 23.0347 111.722 22.96C111.967 22.8747 112.18 22.7573 112.362 22.608C112.554 22.448 112.703 22.2507 112.81 22.016C112.927 21.7707 112.986 21.488 112.986 21.168ZM109.194 15.376C109.194 15.6747 109.252 15.9413 109.37 16.176C109.487 16.4 109.642 16.6027 109.834 16.784C110.036 16.9653 110.266 17.136 110.522 17.296C110.778 17.4453 111.044 17.5893 111.322 17.728C111.802 17.3547 112.154 16.9867 112.378 16.624C112.612 16.2613 112.73 15.8613 112.73 15.424C112.73 14.88 112.559 14.464 112.218 14.176C111.887 13.8773 111.487 13.728 111.018 13.728C110.73 13.728 110.474 13.776 110.25 13.872C110.026 13.968 109.834 14.0907 109.674 14.24C109.514 14.3893 109.391 14.5653 109.306 14.768C109.231 14.96 109.194 15.1627 109.194 15.376ZM116.104 23.312C116.104 23.056 116.19 22.848 116.36 22.688C116.531 22.528 116.75 22.448 117.016 22.448C117.347 22.448 117.614 22.5653 117.816 22.8C118.03 23.0347 118.136 23.376 118.136 23.824C118.136 24.208 118.083 24.544 117.976 24.832C117.87 25.12 117.731 25.3653 117.56 25.568C117.39 25.7813 117.203 25.952 117 26.08C116.798 26.2187 116.595 26.32 116.392 26.384L115.992 25.76C116.376 25.6107 116.659 25.376 116.84 25.056C117.032 24.7467 117.128 24.432 117.128 24.112C117.032 24.144 116.942 24.16 116.856 24.16C116.643 24.16 116.462 24.0907 116.312 23.952C116.174 23.8027 116.104 23.5893 116.104 23.312ZM121.853 23.072C122.589 23.072 123.197 22.8587 123.677 22.432C124.157 22.0053 124.397 21.3867 124.397 20.576C124.397 19.7973 124.157 19.216 123.677 18.832C123.208 18.448 122.557 18.256 121.725 18.256L120.381 18.336V12.8H125.373V13.984H121.581V17.168L122.269 17.136C123.325 17.1467 124.157 17.44 124.765 18.016C125.373 18.592 125.677 19.4187 125.677 20.496C125.677 21.0933 125.576 21.6267 125.373 22.096C125.171 22.5547 124.893 22.9387 124.541 23.248C124.2 23.5573 123.795 23.792 123.325 23.952C122.856 24.112 122.355 24.192 121.821 24.192C121.341 24.192 120.936 24.1653 120.605 24.112C120.275 24.0587 119.965 23.9787 119.677 23.872L120.013 22.784C120.259 22.88 120.52 22.9547 120.797 23.008C121.085 23.0507 121.437 23.072 121.853 23.072Z" fill="#333333"/>
</svg>
